<?xml version="1.0" encoding="utf-8"?>
<!-- Generator: Adobe Illustrator 16.0.0, SVG Export Plug-In . SVG Version: 6.00 Build 0)  -->
<!DOCTYPE svg PUBLIC "-//W3C//DTD SVG 1.1//EN" "http://www.w3.org/Graphics/SVG/1.1/DTD/svg11.dtd">
<svg version="1.1" id="Layer_1" xmlns="http://www.w3.org/2000/svg" xmlns:xlink="http://www.w3.org/1999/xlink" x="0px" y="0px"
	 width="284.578px" height="246.754px" viewBox="0 0 284.578 246.754" enable-background="new 0 0 284.578 246.754"
	 xml:space="preserve">
<g id="Layer_x0020_1">
	<circle fill="#006BFF" cx="123.377" cy="123.377" r="123.377"/>
</g>
<path fill="#000048" d="M269.41,56.635h-24.27v6.067h24.27c5.025,0,9.101,4.075,9.101,9.101v75.843H108.623V71.803
	c0-5.026,4.075-9.101,9.101-9.101h24.27v-6.067h-24.27c-8.374,0.01-15.158,6.794-15.168,15.168v91.011
	c0.01,8.374,6.795,15.159,15.168,15.169h51.17l-2.274,18.202h-3.39c-3.351,0-6.067,2.717-6.067,6.066v6.068h-6.068v6.067h84.944
	v-6.067h-6.068v-6.068c0-3.35-2.716-6.066-6.066-6.066h-3.39l-2.275-18.202h51.171c8.374-0.01,15.157-6.795,15.168-15.169V71.803
	C284.567,63.429,277.784,56.645,269.41,56.635z M223.904,208.32H163.23v-6.068h60.674V208.32z M214.4,196.186h-41.666l2.275-18.202
	h37.115L214.4,196.186z M269.41,171.916H117.724c-5.026,0-9.101-4.075-9.101-9.102v-9.102H278.51v9.102
	C278.51,167.841,274.435,171.916,269.41,171.916z"/>
<path fill="#000048" d="M263.341,159.78h6.068v6.068h-6.068V159.78z"/>
<path fill="#000048" d="M242.682,105.174c1.084,0,2.086-0.578,2.629-1.517c0.541-0.939,0.541-2.094,0-3.034
	c-3.627-6.291-10.219-10.291-17.475-10.597c-7.254-0.308-14.161,3.118-18.306,9.081h-31.928c-4.146-5.962-11.052-9.389-18.306-9.081
	c-7.256,0.307-13.849,4.306-17.474,10.597c-0.542,0.939-0.542,2.095,0,3.034c0.542,0.939,1.544,1.517,2.627,1.517h10.523
	l2.024,6.067l-2.024,6.067h-10.523c-1.083,0-2.085,0.578-2.627,1.517s-0.542,2.095,0,3.034c3.625,6.291,10.218,10.291,17.474,10.598
	c7.254,0.309,14.16-3.119,18.306-9.081h31.928c4.145,5.961,11.052,9.389,18.306,9.081c7.256-0.307,13.848-4.307,17.475-10.598
	c0.541-0.939,0.541-2.095,0-3.034c-0.543-0.939-1.545-1.517-2.629-1.517H232.16l-2.024-6.067l2.024-6.067H242.682z M224.06,112.2
	l3.034,9.101c0.413,1.239,1.572,2.074,2.876,2.076h6.039c-3.464,2.604-7.878,3.596-12.122,2.725
	c-4.245-0.869-7.911-3.519-10.071-7.276c-0.541-0.938-1.541-1.515-2.623-1.517h-35.252c-1.083,0.002-2.083,0.58-2.623,1.517
	c-2.161,3.757-5.827,6.407-10.071,7.276c-4.244,0.871-8.658-0.121-12.122-2.725h6.038c1.305-0.002,2.463-0.837,2.876-2.076
	l3.034-9.101c0.212-0.621,0.212-1.296,0-1.917l-3.034-9.101c-0.413-1.238-1.571-2.074-2.876-2.075h-6.038
	c3.464-2.604,7.878-3.597,12.122-2.726c4.244,0.87,7.91,3.52,10.071,7.276c0.54,0.938,1.54,1.516,2.623,1.517h35.252
	c1.082-0.001,2.082-0.58,2.623-1.517c2.16-3.757,5.826-6.407,10.071-7.276c4.244-0.871,8.658,0.122,12.122,2.726h-6.039
	c-1.304,0.001-2.463,0.837-2.876,2.075l-3.034,9.101C223.849,110.904,223.849,111.579,224.06,112.2z"/>
<path fill="#000048" d="M155.409,68.324c-0.764,1.575-1.43,3.197-1.993,4.854l-11.853,1.693c-1.493,0.213-2.602,1.492-2.603,3
	v12.135h6.066v-9.504l11.134-1.591c1.178-0.169,2.15-1.011,2.481-2.154c0.731-2.529,1.735-4.97,2.995-7.281
	c0.572-1.044,0.481-2.327-0.234-3.279l-6.733-8.983l9.148-9.15l8.982,6.75c0.953,0.715,2.235,0.806,3.279,0.234
	c2.313-1.259,4.754-2.262,7.283-2.994c1.142-0.335,1.984-1.307,2.153-2.485l1.581-11.137h12.94l1.586,11.13
	c0.169,1.179,1.012,2.151,2.155,2.484c2.527,0.733,4.969,1.736,7.28,2.995c1.042,0.572,2.322,0.483,3.274-0.228l8.982-6.734
	l9.148,9.148l-6.74,8.977c-0.716,0.953-0.806,2.235-0.233,3.28c1.258,2.311,2.263,4.753,2.993,7.282
	c0.333,1.142,1.304,1.983,2.483,2.154l11.133,1.59v9.495h6.067V77.871c0-1.509-1.11-2.789-2.603-3.004l-11.853-1.691
	c-0.564-1.658-1.231-3.28-1.993-4.854l7.177-9.562c0.907-1.207,0.788-2.897-0.278-3.965l-12.876-12.87
	c-1.066-1.065-2.755-1.185-3.962-0.281l-9.567,7.171c-1.575-0.764-3.197-1.43-4.854-1.992l-1.687-11.851
	c-0.212-1.495-1.492-2.605-3.004-2.605h-18.202c-1.511,0-2.79,1.111-3.004,2.605l-1.691,11.851c-1.658,0.563-3.28,1.228-4.854,1.992
	l-9.562-7.171c-1.207-0.903-2.896-0.784-3.962,0.281l-12.877,12.873c-1.066,1.068-1.185,2.758-0.277,3.965L155.409,68.324z"/>
<path fill="#000048" d="M190.533,44.5h6.067v6.067h-6.067V44.5z"/>
<path fill="#000048" d="M161.392,59.085l4.289-4.29l4.29,4.29l-4.29,4.292L161.392,59.085z"/>
<path fill="#000048" d="M217.164,59.086l4.29-4.29l4.292,4.29l-4.292,4.292L217.164,59.086z"/>
<path fill="#000048" d="M169.297,86.972h6.068c0-10.052,8.149-18.202,18.201-18.202s18.202,8.15,18.202,18.202h6.067
	c0-13.404-10.865-24.27-24.27-24.27S169.297,73.567,169.297,86.972z"/>
</svg>
